<svg width="400" height="200" viewBox="0 0 400 200" fill="none" xmlns="http://www.w3.org/2000/svg">
<rect width="400" height="200" rx="24" fill="#282B38"/>
<path d="M122.541 78.9409C122.541 77.2486 122.914 75.8144 123.66 74.6384C124.434 73.4336 125.453 72.5301 126.715 71.9277C127.977 71.2967 129.368 70.9812 130.888 70.9812C132.323 70.9812 133.57 71.1676 134.632 71.5405C135.693 71.9134 136.639 72.401 137.471 73.0034C138.303 73.5771 139.035 74.1938 139.666 74.8535V66.0762C138.49 65.187 137.184 64.4699 135.75 63.9249C134.345 63.3799 132.538 63.1074 130.329 63.1074C127.834 63.1074 125.539 63.4803 123.445 64.2261C121.351 64.9719 119.558 66.0475 118.067 67.453C116.575 68.8586 115.413 70.5366 114.582 72.4871C113.778 74.4089 113.377 76.5602 113.377 78.9409C113.377 81.3217 113.778 83.4873 114.582 85.4379C115.413 87.3597 116.575 89.0233 118.067 90.4289C119.558 91.8344 121.351 92.91 123.445 93.6558C125.539 94.4016 127.834 94.7745 130.329 94.7745C132.538 94.7745 134.345 94.502 135.75 93.957C137.184 93.3833 138.49 92.6662 139.666 91.8057V83.0284C139.035 83.6881 138.303 84.3192 137.471 84.9215C136.639 85.4952 135.693 85.9685 134.632 86.3414C133.57 86.7143 132.323 86.9007 130.888 86.9007C129.368 86.9007 127.977 86.5996 126.715 85.9972C125.453 85.3661 124.434 84.4626 123.66 83.2866C122.914 82.0818 122.541 80.6333 122.541 78.9409ZM148.532 81.9958H171.981V74.5523H148.532V81.9958ZM166.732 63.8819V94H175.079V63.8819H166.732ZM146.51 63.8819V94H154.857V63.8819H146.51ZM207.272 71.3254H215.705V94H224.052V71.3254H232.486V63.8819H207.272V71.3254Z" fill="white"/>
<path d="M244.913 80.705L252.787 94H262.511L253.475 80.705H244.913ZM236.738 63.8819V94H245.085V63.8819H236.738ZM242.074 70.9381H247.882C248.771 70.9381 249.517 71.0672 250.119 71.3254C250.722 71.5835 251.181 71.9708 251.496 72.4871C251.84 72.9747 252.013 73.5771 252.013 74.2942C252.013 75.0113 251.84 75.628 251.496 76.1443C251.181 76.6606 250.722 77.0478 250.119 77.306C249.517 77.5641 248.771 77.6932 247.882 77.6932H242.074V84.018H248.57C251.324 84.018 253.59 83.6021 255.369 82.7703C257.176 81.9097 258.509 80.7194 259.37 79.1991C260.259 77.6502 260.704 75.9005 260.704 73.9499C260.704 71.9708 260.259 70.2354 259.37 68.7438C258.509 67.2236 257.176 66.0332 255.369 65.1727C253.59 64.3122 251.324 63.8819 248.57 63.8819H242.074V70.9381ZM263.752 71.3254H272.185V94H280.532V71.3254H288.965V63.8819H263.752V71.3254Z" fill="#3378E0"/>
<path d="M193.749 63.9811L180.842 94.7139L192.315 88.7656L193.749 82.3216L195.662 88.7656L206.657 94.2182L193.749 63.9811Z" fill="#3F8CFF" stroke="#3F8CFF" stroke-width="1.22931"/>
<path d="M70.2614 139H68.3977L72.5852 127.364H74.6136L78.8011 139H76.9375L73.6477 129.477H73.5568L70.2614 139ZM70.5739 134.443H76.6193V135.92H70.5739V134.443ZM90.1936 127.364V139H88.5799L82.6652 130.466H82.5572V139H80.8015V127.364H82.4265L88.347 135.909H88.4549V127.364H90.1936ZM103.183 133.182C103.183 134.424 102.955 135.492 102.501 136.386C102.046 137.277 101.423 137.962 100.631 138.443C99.8436 138.92 98.9478 139.159 97.944 139.159C96.9364 139.159 96.0368 138.92 95.2451 138.443C94.4572 137.962 93.836 137.275 93.3815 136.381C92.9269 135.487 92.6997 134.42 92.6997 133.182C92.6997 131.939 92.9269 130.873 93.3815 129.983C93.836 129.089 94.4572 128.403 95.2451 127.926C96.0368 127.445 96.9364 127.205 97.944 127.205C98.9478 127.205 99.8436 127.445 100.631 127.926C101.423 128.403 102.046 129.089 102.501 129.983C102.955 130.873 103.183 131.939 103.183 133.182ZM101.444 133.182C101.444 132.235 101.291 131.437 100.984 130.79C100.681 130.138 100.264 129.646 99.7337 129.312C99.2072 128.975 98.6106 128.807 97.944 128.807C97.2735 128.807 96.675 128.975 96.1485 129.312C95.622 129.646 95.2053 130.138 94.8985 130.79C94.5955 131.437 94.444 132.235 94.444 133.182C94.444 134.129 94.5955 134.928 94.8985 135.58C95.2053 136.227 95.622 136.72 96.1485 137.057C96.675 137.39 97.2735 137.557 97.944 137.557C98.6106 137.557 99.2072 137.39 99.7337 137.057C100.264 136.72 100.681 136.227 100.984 135.58C101.291 134.928 101.444 134.129 101.444 133.182ZM115.084 127.364V139H113.47L107.555 130.466H107.447V139H105.692V127.364H107.317L113.237 135.909H113.345V127.364H115.084ZM117.067 127.364H119.061L122.101 132.653H122.226L125.266 127.364H127.26L123.039 134.432V139H121.289V134.432L117.067 127.364ZM129.238 127.364H131.368L135.073 136.409H135.209L138.914 127.364H141.045V139H139.374V130.58H139.266L135.834 138.983H134.448L131.016 130.574H130.908V139H129.238V127.364ZM154.025 133.182C154.025 134.424 153.798 135.492 153.343 136.386C152.889 137.277 152.266 137.962 151.474 138.443C150.686 138.92 149.79 139.159 148.786 139.159C147.779 139.159 146.879 138.92 146.088 138.443C145.3 137.962 144.679 137.275 144.224 136.381C143.769 135.487 143.542 134.42 143.542 133.182C143.542 131.939 143.769 130.873 144.224 129.983C144.679 129.089 145.3 128.403 146.088 127.926C146.879 127.445 147.779 127.205 148.786 127.205C149.79 127.205 150.686 127.445 151.474 127.926C152.266 128.403 152.889 129.089 153.343 129.983C153.798 130.873 154.025 131.939 154.025 133.182ZM152.286 133.182C152.286 132.235 152.133 131.437 151.826 130.79C151.523 130.138 151.107 129.646 150.576 129.312C150.05 128.975 149.453 128.807 148.786 128.807C148.116 128.807 147.518 128.975 146.991 129.312C146.465 129.646 146.048 130.138 145.741 130.79C145.438 131.437 145.286 132.235 145.286 133.182C145.286 134.129 145.438 134.928 145.741 135.58C146.048 136.227 146.465 136.72 146.991 137.057C147.518 137.39 148.116 137.557 148.786 137.557C149.453 137.557 150.05 137.39 150.576 137.057C151.107 136.72 151.523 136.227 151.826 135.58C152.133 134.928 152.286 134.129 152.286 133.182ZM164.017 127.364H165.778V135.017C165.778 135.831 165.587 136.553 165.204 137.182C164.822 137.807 164.284 138.299 163.591 138.659C162.898 139.015 162.085 139.193 161.153 139.193C160.225 139.193 159.415 139.015 158.722 138.659C158.028 138.299 157.49 137.807 157.108 137.182C156.725 136.553 156.534 135.831 156.534 135.017V127.364H158.29V134.875C158.29 135.402 158.405 135.869 158.636 136.278C158.871 136.688 159.203 137.009 159.631 137.244C160.059 137.475 160.566 137.591 161.153 137.591C161.744 137.591 162.254 137.475 162.682 137.244C163.114 137.009 163.443 136.688 163.67 136.278C163.901 135.869 164.017 135.402 164.017 134.875V127.364ZM174.997 130.42C174.937 129.883 174.687 129.466 174.247 129.17C173.808 128.871 173.255 128.722 172.588 128.722C172.111 128.722 171.698 128.797 171.35 128.949C171.001 129.097 170.73 129.301 170.537 129.562C170.348 129.82 170.253 130.114 170.253 130.443C170.253 130.72 170.318 130.958 170.446 131.159C170.579 131.36 170.751 131.528 170.963 131.665C171.179 131.797 171.41 131.909 171.657 132C171.903 132.087 172.14 132.159 172.367 132.216L173.503 132.511C173.874 132.602 174.255 132.725 174.645 132.881C175.035 133.036 175.397 133.241 175.73 133.494C176.064 133.748 176.333 134.062 176.537 134.438C176.746 134.812 176.85 135.261 176.85 135.784C176.85 136.443 176.679 137.028 176.338 137.54C176.001 138.051 175.511 138.455 174.867 138.75C174.227 139.045 173.452 139.193 172.543 139.193C171.672 139.193 170.918 139.055 170.282 138.778C169.645 138.502 169.147 138.11 168.787 137.602C168.427 137.091 168.229 136.485 168.191 135.784H169.952C169.986 136.205 170.122 136.555 170.361 136.835C170.604 137.112 170.912 137.318 171.287 137.455C171.666 137.587 172.081 137.653 172.532 137.653C173.028 137.653 173.469 137.576 173.855 137.42C174.246 137.261 174.552 137.042 174.776 136.761C174.999 136.477 175.111 136.146 175.111 135.767C175.111 135.422 175.013 135.14 174.816 134.92C174.622 134.701 174.359 134.519 174.026 134.375C173.696 134.231 173.323 134.104 172.907 133.994L171.532 133.619C170.6 133.366 169.861 132.992 169.316 132.5C168.774 132.008 168.503 131.356 168.503 130.545C168.503 129.875 168.685 129.29 169.049 128.79C169.412 128.29 169.905 127.902 170.526 127.625C171.147 127.345 171.848 127.205 172.628 127.205C173.416 127.205 174.111 127.343 174.713 127.619C175.319 127.896 175.797 128.277 176.145 128.761C176.494 129.242 176.676 129.795 176.691 130.42H174.997ZM186.101 139L182.873 127.364H184.72L186.987 136.375H187.095L189.453 127.364H191.282L193.64 136.381H193.748L196.01 127.364H197.862L194.629 139H192.862L190.413 130.284H190.322L187.873 139H186.101ZM199.783 139V127.364H207.078V128.875H201.538V132.42H206.698V133.926H201.538V137.489H207.146V139H199.783ZM209.743 139V127.364H214.005C214.831 127.364 215.514 127.5 216.056 127.773C216.598 128.042 217.003 128.407 217.272 128.869C217.541 129.328 217.675 129.845 217.675 130.42C217.675 130.905 217.586 131.314 217.408 131.648C217.23 131.977 216.992 132.242 216.692 132.443C216.397 132.64 216.071 132.784 215.715 132.875V132.989C216.101 133.008 216.478 133.133 216.846 133.364C217.217 133.591 217.524 133.915 217.766 134.335C218.009 134.756 218.13 135.267 218.13 135.869C218.13 136.464 217.99 136.998 217.709 137.472C217.433 137.941 217.005 138.314 216.425 138.591C215.846 138.864 215.105 139 214.204 139H209.743ZM211.499 137.494H214.033C214.874 137.494 215.476 137.331 215.84 137.006C216.204 136.68 216.385 136.273 216.385 135.784C216.385 135.417 216.293 135.08 216.107 134.773C215.921 134.466 215.656 134.222 215.312 134.04C214.971 133.858 214.565 133.767 214.096 133.767H211.499V137.494ZM211.499 132.398H213.851C214.245 132.398 214.599 132.322 214.914 132.17C215.232 132.019 215.484 131.807 215.67 131.534C215.859 131.258 215.954 130.932 215.954 130.557C215.954 130.076 215.785 129.672 215.448 129.347C215.111 129.021 214.594 128.858 213.897 128.858H211.499V132.398ZM232.962 131.04C232.852 130.695 232.704 130.386 232.518 130.114C232.337 129.837 232.119 129.602 231.865 129.409C231.611 129.212 231.321 129.062 230.996 128.96C230.674 128.858 230.319 128.807 229.933 128.807C229.278 128.807 228.687 128.975 228.16 129.312C227.634 129.65 227.217 130.144 226.91 130.795C226.607 131.443 226.456 132.237 226.456 133.176C226.456 134.119 226.609 134.917 226.916 135.568C227.223 136.22 227.643 136.714 228.177 137.051C228.712 137.388 229.319 137.557 230.001 137.557C230.634 137.557 231.185 137.428 231.655 137.17C232.128 136.913 232.494 136.549 232.751 136.08C233.013 135.606 233.143 135.049 233.143 134.409L233.598 134.494H230.268V133.045H234.842V134.369C234.842 135.347 234.634 136.195 234.217 136.915C233.804 137.631 233.232 138.184 232.501 138.574C231.774 138.964 230.941 139.159 230.001 139.159C228.948 139.159 228.024 138.917 227.229 138.432C226.437 137.947 225.819 137.259 225.376 136.369C224.933 135.475 224.712 134.415 224.712 133.188C224.712 132.259 224.84 131.426 225.098 130.688C225.355 129.949 225.717 129.322 226.183 128.807C226.653 128.288 227.204 127.892 227.837 127.619C228.473 127.343 229.168 127.205 229.922 127.205C230.551 127.205 231.136 127.297 231.677 127.483C232.223 127.669 232.708 127.932 233.132 128.273C233.56 128.614 233.914 129.019 234.194 129.489C234.475 129.955 234.664 130.472 234.763 131.04H232.962ZM237.391 139V127.364H241.539C242.44 127.364 243.188 127.519 243.783 127.83C244.381 128.14 244.828 128.57 245.124 129.119C245.419 129.665 245.567 130.295 245.567 131.011C245.567 131.723 245.417 132.35 245.118 132.892C244.823 133.43 244.376 133.848 243.777 134.148C243.183 134.447 242.434 134.597 241.533 134.597H238.391V133.085H241.374C241.942 133.085 242.404 133.004 242.76 132.841C243.12 132.678 243.383 132.441 243.55 132.131C243.717 131.82 243.8 131.447 243.8 131.011C243.8 130.572 243.715 130.191 243.544 129.869C243.378 129.547 243.114 129.301 242.755 129.131C242.398 128.956 241.931 128.869 241.351 128.869H239.147V139H237.391ZM243.135 133.75L246.01 139H244.01L241.192 133.75H243.135ZM258.131 133.182C258.131 134.424 257.904 135.492 257.45 136.386C256.995 137.277 256.372 137.962 255.58 138.443C254.792 138.92 253.897 139.159 252.893 139.159C251.885 139.159 250.986 138.92 250.194 138.443C249.406 137.962 248.785 137.275 248.33 136.381C247.876 135.487 247.648 134.42 247.648 133.182C247.648 131.939 247.876 130.873 248.33 129.983C248.785 129.089 249.406 128.403 250.194 127.926C250.986 127.445 251.885 127.205 252.893 127.205C253.897 127.205 254.792 127.445 255.58 127.926C256.372 128.403 256.995 129.089 257.45 129.983C257.904 130.873 258.131 131.939 258.131 133.182ZM256.393 133.182C256.393 132.235 256.239 131.437 255.932 130.79C255.629 130.138 255.213 129.646 254.682 129.312C254.156 128.975 253.559 128.807 252.893 128.807C252.222 128.807 251.624 128.975 251.097 129.312C250.571 129.646 250.154 130.138 249.847 130.79C249.544 131.437 249.393 132.235 249.393 133.182C249.393 134.129 249.544 134.928 249.847 135.58C250.154 136.227 250.571 136.72 251.097 137.057C251.624 137.39 252.222 137.557 252.893 137.557C253.559 137.557 254.156 137.39 254.682 137.057C255.213 136.72 255.629 136.227 255.932 135.58C256.239 134.928 256.393 134.129 256.393 133.182ZM268.123 127.364H269.885V135.017C269.885 135.831 269.693 136.553 269.311 137.182C268.928 137.807 268.39 138.299 267.697 138.659C267.004 139.015 266.191 139.193 265.26 139.193C264.332 139.193 263.521 139.015 262.828 138.659C262.135 138.299 261.597 137.807 261.214 137.182C260.832 136.553 260.64 135.831 260.64 135.017V127.364H262.396V134.875C262.396 135.402 262.511 135.869 262.743 136.278C262.977 136.688 263.309 137.009 263.737 137.244C264.165 137.475 264.672 137.591 265.26 137.591C265.851 137.591 266.36 137.475 266.788 137.244C267.22 137.009 267.549 136.688 267.777 136.278C268.008 135.869 268.123 135.402 268.123 134.875V127.364ZM272.757 139V127.364H276.905C277.81 127.364 278.56 127.528 279.155 127.858C279.75 128.187 280.195 128.638 280.49 129.21C280.786 129.778 280.933 130.419 280.933 131.131C280.933 131.847 280.784 132.491 280.484 133.062C280.189 133.631 279.742 134.081 279.144 134.415C278.549 134.744 277.801 134.909 276.899 134.909H274.047V133.42H276.74C277.312 133.42 277.776 133.322 278.132 133.125C278.488 132.924 278.75 132.652 278.916 132.307C279.083 131.962 279.166 131.57 279.166 131.131C279.166 130.691 279.083 130.301 278.916 129.96C278.75 129.619 278.486 129.352 278.126 129.159C277.77 128.966 277.301 128.869 276.717 128.869H274.513V139H272.757ZM297.531 131.148H295.758C295.69 130.769 295.563 130.436 295.377 130.148C295.192 129.86 294.964 129.616 294.695 129.415C294.427 129.214 294.125 129.062 293.792 128.96C293.462 128.858 293.112 128.807 292.741 128.807C292.07 128.807 291.47 128.975 290.94 129.312C290.413 129.65 289.997 130.144 289.69 130.795C289.387 131.447 289.235 132.242 289.235 133.182C289.235 134.129 289.387 134.928 289.69 135.58C289.997 136.231 290.415 136.723 290.945 137.057C291.476 137.39 292.072 137.557 292.735 137.557C293.103 137.557 293.451 137.508 293.781 137.409C294.114 137.307 294.415 137.157 294.684 136.96C294.953 136.763 295.18 136.523 295.366 136.239C295.555 135.951 295.686 135.621 295.758 135.25L297.531 135.256C297.436 135.828 297.252 136.354 296.98 136.835C296.711 137.312 296.364 137.725 295.94 138.074C295.519 138.419 295.038 138.686 294.497 138.875C293.955 139.064 293.364 139.159 292.724 139.159C291.716 139.159 290.819 138.92 290.031 138.443C289.243 137.962 288.622 137.275 288.167 136.381C287.716 135.487 287.491 134.42 287.491 133.182C287.491 131.939 287.718 130.873 288.173 129.983C288.627 129.089 289.248 128.403 290.036 127.926C290.824 127.445 291.72 127.205 292.724 127.205C293.341 127.205 293.917 127.294 294.451 127.472C294.989 127.646 295.472 127.903 295.9 128.244C296.328 128.581 296.682 128.994 296.962 129.483C297.243 129.968 297.432 130.523 297.531 131.148ZM299.952 139V127.364H301.707V132.42H307.508V127.364H309.27V139H307.508V133.926H301.707V139H299.952ZM313.129 139H311.266L315.453 127.364H317.482L321.669 139H319.806L316.516 129.477H316.425L313.129 139ZM313.442 134.443H319.487V135.92H313.442V134.443ZM321.721 128.875V127.364H330.726V128.875H327.096V139H325.346V128.875H321.721Z" fill="white"/>
</svg>
