<svg width="400" height="200" viewBox="0 0 400 200" fill="none" xmlns="http://www.w3.org/2000/svg">
<rect width="400" height="200" rx="24" fill="#441442"/>
<path d="M51.1705 139.159C50.3902 139.159 49.6932 139.025 49.0795 138.756C48.4697 138.487 47.9867 138.114 47.6307 137.636C47.2784 137.155 47.089 136.598 47.0625 135.966H48.8466C48.8693 136.311 48.9848 136.61 49.1932 136.864C49.4053 137.114 49.6818 137.307 50.0227 137.443C50.3636 137.58 50.7424 137.648 51.1591 137.648C51.6174 137.648 52.0227 137.568 52.375 137.409C52.7311 137.25 53.0095 137.028 53.2102 136.744C53.411 136.456 53.5114 136.125 53.5114 135.75C53.5114 135.36 53.411 135.017 53.2102 134.722C53.0133 134.422 52.7235 134.187 52.3409 134.017C51.9621 133.847 51.5038 133.761 50.9659 133.761H49.983V132.33H50.9659C51.3977 132.33 51.7765 132.252 52.1023 132.097C52.4318 131.941 52.6894 131.725 52.875 131.449C53.0606 131.169 53.1534 130.841 53.1534 130.466C53.1534 130.106 53.072 129.794 52.9091 129.528C52.75 129.259 52.5227 129.049 52.2273 128.898C51.9356 128.746 51.5909 128.67 51.1932 128.67C50.8144 128.67 50.4602 128.741 50.1307 128.881C49.8049 129.017 49.5398 129.214 49.3352 129.472C49.1307 129.725 49.0208 130.03 49.0057 130.386H47.3068C47.3258 129.758 47.5114 129.205 47.8636 128.727C48.2197 128.25 48.6894 127.877 49.2727 127.608C49.8561 127.339 50.5038 127.205 51.2159 127.205C51.9621 127.205 52.6061 127.35 53.1477 127.642C53.6932 127.93 54.1136 128.314 54.4091 128.795C54.7083 129.277 54.8561 129.803 54.8523 130.375C54.8561 131.027 54.6742 131.58 54.3068 132.034C53.9432 132.489 53.4583 132.794 52.8523 132.949V133.04C53.625 133.157 54.2235 133.464 54.6477 133.96C55.0758 134.456 55.2879 135.072 55.2841 135.807C55.2879 136.447 55.1098 137.021 54.75 137.528C54.3939 138.036 53.9072 138.436 53.2898 138.727C52.6723 139.015 51.9659 139.159 51.1705 139.159ZM57.9109 139V127.364H62.0586C62.9602 127.364 63.7083 127.519 64.303 127.83C64.9014 128.14 65.3484 128.57 65.6439 129.119C65.9393 129.665 66.087 130.295 66.087 131.011C66.087 131.723 65.9374 132.35 65.6382 132.892C65.3427 133.43 64.8958 133.848 64.2973 134.148C63.7026 134.447 62.9545 134.597 62.053 134.597H58.9109V133.085H61.8939C62.462 133.085 62.9242 133.004 63.2802 132.841C63.6401 132.678 63.9033 132.441 64.07 132.131C64.2367 131.82 64.32 131.447 64.32 131.011C64.32 130.572 64.2348 130.191 64.0643 129.869C63.8977 129.547 63.6344 129.301 63.2745 129.131C62.9185 128.956 62.4507 128.869 61.8711 128.869H59.6666V139H57.9109ZM63.6552 133.75L66.5302 139H64.5302L61.712 133.75H63.6552ZM72.3105 139H68.5434V127.364H72.4298C73.5699 127.364 74.5491 127.597 75.3673 128.062C76.1855 128.525 76.8123 129.189 77.248 130.057C77.6873 130.92 77.907 131.956 77.907 133.165C77.907 134.377 77.6855 135.419 77.2423 136.29C76.8029 137.161 76.1665 137.831 75.3332 138.301C74.4998 138.767 73.4923 139 72.3105 139ZM70.2991 137.466H72.2139C73.1002 137.466 73.837 137.299 74.4241 136.966C75.0112 136.629 75.4506 136.142 75.7423 135.506C76.0339 134.866 76.1798 134.085 76.1798 133.165C76.1798 132.252 76.0339 131.477 75.7423 130.841C75.4544 130.205 75.0245 129.722 74.4525 129.392C73.8805 129.062 73.1703 128.898 72.3218 128.898H70.2991V137.466ZM84.9647 139V127.364H89.1124C90.0177 127.364 90.7677 127.528 91.3624 127.858C91.9571 128.187 92.4022 128.638 92.6976 129.21C92.9931 129.778 93.1408 130.419 93.1408 131.131C93.1408 131.847 92.9912 132.491 92.6919 133.062C92.3965 133.631 91.9495 134.081 91.351 134.415C90.7563 134.744 90.0082 134.909 89.1067 134.909H86.2544V133.42H88.9476C89.5196 133.42 89.9836 133.322 90.3397 133.125C90.6957 132.924 90.9571 132.652 91.1237 132.307C91.2904 131.962 91.3737 131.57 91.3737 131.131C91.3737 130.691 91.2904 130.301 91.1237 129.96C90.9571 129.619 90.6938 129.352 90.334 129.159C89.9779 128.966 89.5082 128.869 88.9249 128.869H86.7203V139H84.9647ZM95.2676 139H93.404L97.5915 127.364H99.6199L103.807 139H101.944L98.654 129.477H98.5631L95.2676 139ZM95.5801 134.443H101.626V135.92H95.5801V134.443ZM105.808 139V127.364H109.956C110.857 127.364 111.605 127.519 112.2 127.83C112.798 128.14 113.245 128.57 113.541 129.119C113.836 129.665 113.984 130.295 113.984 131.011C113.984 131.723 113.834 132.35 113.535 132.892C113.24 133.43 112.793 133.848 112.194 134.148C111.599 134.447 110.851 134.597 109.95 134.597H106.808V133.085H109.791C110.359 133.085 110.821 133.004 111.177 132.841C111.537 132.678 111.8 132.441 111.967 132.131C112.134 131.82 112.217 131.447 112.217 131.011C112.217 130.572 112.132 130.191 111.961 129.869C111.795 129.547 111.531 129.301 111.171 129.131C110.815 128.956 110.348 128.869 109.768 128.869H107.563V139H105.808ZM111.552 133.75L114.427 139H112.427L109.609 133.75H111.552ZM115.866 128.875V127.364H124.872V128.875H121.241V139H119.491V128.875H115.866ZM126.284 127.364H128.279L131.319 132.653H131.444L134.483 127.364H136.478L132.256 134.432V139H130.506V134.432L126.284 127.364ZM147.288 135.227H149.015L150.231 136.812L150.805 137.517L152.743 140.045H150.947L149.652 138.358L149.209 137.744L147.288 135.227ZM153.118 133.182C153.118 134.424 152.89 135.492 152.436 136.386C151.981 137.277 151.358 137.962 150.566 138.443C149.779 138.92 148.883 139.159 147.879 139.159C146.871 139.159 145.972 138.92 145.18 138.443C144.392 137.962 143.771 137.275 143.316 136.381C142.862 135.487 142.635 134.42 142.635 133.182C142.635 131.939 142.862 130.873 143.316 129.983C143.771 129.089 144.392 128.403 145.18 127.926C145.972 127.445 146.871 127.205 147.879 127.205C148.883 127.205 149.779 127.445 150.566 127.926C151.358 128.403 151.981 129.089 152.436 129.983C152.89 130.873 153.118 131.939 153.118 133.182ZM151.379 133.182C151.379 132.235 151.226 131.437 150.919 130.79C150.616 130.138 150.199 129.646 149.669 129.312C149.142 128.975 148.546 128.807 147.879 128.807C147.209 128.807 146.61 128.975 146.084 129.312C145.557 129.646 145.14 130.138 144.834 130.79C144.53 131.437 144.379 132.235 144.379 133.182C144.379 134.129 144.53 134.928 144.834 135.58C145.14 136.227 145.557 136.72 146.084 137.057C146.61 137.39 147.209 137.557 147.879 137.557C148.546 137.557 149.142 137.39 149.669 137.057C150.199 136.72 150.616 136.227 150.919 135.58C151.226 134.928 151.379 134.129 151.379 133.182ZM163.109 127.364H164.871V135.017C164.871 135.831 164.68 136.553 164.297 137.182C163.914 137.807 163.377 138.299 162.683 138.659C161.99 139.015 161.178 139.193 160.246 139.193C159.318 139.193 158.507 139.015 157.814 138.659C157.121 138.299 156.583 137.807 156.2 137.182C155.818 136.553 155.627 135.831 155.627 135.017V127.364H157.382V134.875C157.382 135.402 157.498 135.869 157.729 136.278C157.964 136.688 158.295 137.009 158.723 137.244C159.151 137.475 159.659 137.591 160.246 137.591C160.837 137.591 161.346 137.475 161.774 137.244C162.206 137.009 162.536 136.688 162.763 136.278C162.994 135.869 163.109 135.402 163.109 134.875V127.364ZM177.851 133.182C177.851 134.424 177.624 135.492 177.17 136.386C176.715 137.277 176.092 137.962 175.3 138.443C174.512 138.92 173.617 139.159 172.613 139.159C171.605 139.159 170.706 138.92 169.914 138.443C169.126 137.962 168.505 137.275 168.05 136.381C167.596 135.487 167.368 134.42 167.368 133.182C167.368 131.939 167.596 130.873 168.05 129.983C168.505 129.089 169.126 128.403 169.914 127.926C170.706 127.445 171.605 127.205 172.613 127.205C173.617 127.205 174.512 127.445 175.3 127.926C176.092 128.403 176.715 129.089 177.17 129.983C177.624 130.873 177.851 131.939 177.851 133.182ZM176.113 133.182C176.113 132.235 175.959 131.437 175.652 130.79C175.349 130.138 174.933 129.646 174.402 129.312C173.876 128.975 173.279 128.807 172.613 128.807C171.942 128.807 171.344 128.975 170.817 129.312C170.291 129.646 169.874 130.138 169.567 130.79C169.264 131.437 169.113 132.235 169.113 133.182C169.113 134.129 169.264 134.928 169.567 135.58C169.874 136.227 170.291 136.72 170.817 137.057C171.344 137.39 171.942 137.557 172.613 137.557C173.279 137.557 173.876 137.39 174.402 137.057C174.933 136.72 175.349 136.227 175.652 135.58C175.959 134.928 176.113 134.129 176.113 133.182ZM179.286 128.875V127.364H188.292V128.875H184.661V139H182.911V128.875H179.286ZM190.602 139V127.364H197.898V128.875H192.358V132.42H197.517V133.926H192.358V137.489H197.966V139H190.602ZM207.396 139L204.168 127.364H206.015L208.282 136.375H208.39L210.748 127.364H212.577L214.935 136.381H215.043L217.305 127.364H219.157L215.924 139H214.157L211.708 130.284H211.617L209.168 139H207.396ZM221.078 139V127.364H228.373V128.875H222.833V132.42H227.993V133.926H222.833V137.489H228.441V139H221.078ZM231.038 139V127.364H235.3C236.126 127.364 236.809 127.5 237.351 127.773C237.893 128.042 238.298 128.407 238.567 128.869C238.836 129.328 238.97 129.845 238.97 130.42C238.97 130.905 238.881 131.314 238.703 131.648C238.525 131.977 238.287 132.242 237.987 132.443C237.692 132.64 237.366 132.784 237.01 132.875V132.989C237.396 133.008 237.773 133.133 238.141 133.364C238.512 133.591 238.819 133.915 239.061 134.335C239.304 134.756 239.425 135.267 239.425 135.869C239.425 136.464 239.285 136.998 239.004 137.472C238.728 137.941 238.3 138.314 237.72 138.591C237.141 138.864 236.4 139 235.499 139H231.038ZM232.794 137.494H235.328C236.169 137.494 236.771 137.331 237.135 137.006C237.499 136.68 237.68 136.273 237.68 135.784C237.68 135.417 237.588 135.08 237.402 134.773C237.216 134.466 236.951 134.222 236.607 134.04C236.266 133.858 235.86 133.767 235.391 133.767H232.794V137.494ZM232.794 132.398H235.146C235.54 132.398 235.894 132.322 236.209 132.17C236.527 132.019 236.779 131.807 236.965 131.534C237.154 131.258 237.249 130.932 237.249 130.557C237.249 130.076 237.08 129.672 236.743 129.347C236.406 129.021 235.889 128.858 235.192 128.858H232.794V132.398ZM247.364 139H245.501L249.688 127.364H251.717L255.904 139H254.041L250.751 129.477H250.66L247.364 139ZM247.677 134.443H253.722V135.92H247.677V134.443ZM257.905 139V127.364H262.052C262.958 127.364 263.708 127.528 264.302 127.858C264.897 128.187 265.342 128.638 265.638 129.21C265.933 129.778 266.081 130.419 266.081 131.131C266.081 131.847 265.931 132.491 265.632 133.062C265.336 133.631 264.89 134.081 264.291 134.415C263.696 134.744 262.948 134.909 262.047 134.909H259.194V133.42H261.888C262.46 133.42 262.924 133.322 263.28 133.125C263.636 132.924 263.897 132.652 264.064 132.307C264.23 131.962 264.314 131.57 264.314 131.131C264.314 130.691 264.23 130.301 264.064 129.96C263.897 129.619 263.634 129.352 263.274 129.159C262.918 128.966 262.448 128.869 261.865 128.869H259.66V139H257.905ZM268.459 139V127.364H272.607C273.512 127.364 274.262 127.528 274.857 127.858C275.451 128.187 275.897 128.638 276.192 129.21C276.487 129.778 276.635 130.419 276.635 131.131C276.635 131.847 276.486 132.491 276.186 133.062C275.891 133.631 275.444 134.081 274.845 134.415C274.251 134.744 273.503 134.909 272.601 134.909H269.749V133.42H272.442C273.014 133.42 273.478 133.322 273.834 133.125C274.19 132.924 274.451 132.652 274.618 132.307C274.785 131.962 274.868 131.57 274.868 131.131C274.868 130.691 274.785 130.301 274.618 129.96C274.451 129.619 274.188 129.352 273.828 129.159C273.472 128.966 273.003 128.869 272.419 128.869H270.215V139H268.459ZM279.013 139V127.364H280.769V137.489H286.042V139H279.013ZM290.12 127.364V139H288.365V127.364H290.12ZM302.662 131.148H300.889C300.821 130.769 300.694 130.436 300.509 130.148C300.323 129.86 300.096 129.616 299.827 129.415C299.558 129.214 299.257 129.062 298.923 128.96C298.594 128.858 298.243 128.807 297.872 128.807C297.202 128.807 296.601 128.975 296.071 129.312C295.545 129.65 295.128 130.144 294.821 130.795C294.518 131.447 294.366 132.242 294.366 133.182C294.366 134.129 294.518 134.928 294.821 135.58C295.128 136.231 295.546 136.723 296.077 137.057C296.607 137.39 297.204 137.557 297.866 137.557C298.234 137.557 298.582 137.508 298.912 137.409C299.245 137.307 299.546 137.157 299.815 136.96C300.084 136.763 300.312 136.523 300.497 136.239C300.687 135.951 300.817 135.621 300.889 135.25L302.662 135.256C302.567 135.828 302.384 136.354 302.111 136.835C301.842 137.312 301.495 137.725 301.071 138.074C300.651 138.419 300.17 138.686 299.628 138.875C299.086 139.064 298.495 139.159 297.855 139.159C296.848 139.159 295.95 138.92 295.162 138.443C294.374 137.962 293.753 137.275 293.298 136.381C292.848 135.487 292.622 134.42 292.622 133.182C292.622 131.939 292.849 130.873 293.304 129.983C293.759 129.089 294.38 128.403 295.168 127.926C295.955 127.445 296.851 127.205 297.855 127.205C298.473 127.205 299.048 127.294 299.582 127.472C300.12 127.646 300.603 127.903 301.031 128.244C301.459 128.581 301.813 128.994 302.094 129.483C302.374 129.968 302.563 130.523 302.662 131.148ZM305.988 139H304.124L308.311 127.364H310.34L314.527 139H312.664L309.374 129.477H309.283L305.988 139ZM306.3 134.443H312.346V135.92H306.3V134.443ZM314.579 128.875V127.364H323.585V128.875H319.954V139H318.204V128.875H314.579ZM327.65 127.364V139H325.895V127.364H327.65ZM340.635 133.182C340.635 134.424 340.408 135.492 339.953 136.386C339.499 137.277 338.876 137.962 338.084 138.443C337.296 138.92 336.4 139.159 335.396 139.159C334.389 139.159 333.489 138.92 332.698 138.443C331.91 137.962 331.289 137.275 330.834 136.381C330.379 135.487 330.152 134.42 330.152 133.182C330.152 131.939 330.379 130.873 330.834 129.983C331.289 129.089 331.91 128.403 332.698 127.926C333.489 127.445 334.389 127.205 335.396 127.205C336.4 127.205 337.296 127.445 338.084 127.926C338.876 128.403 339.499 129.089 339.953 129.983C340.408 130.873 340.635 131.939 340.635 133.182ZM338.896 133.182C338.896 132.235 338.743 131.437 338.436 130.79C338.133 130.138 337.717 129.646 337.186 129.312C336.66 128.975 336.063 128.807 335.396 128.807C334.726 128.807 334.128 128.975 333.601 129.312C333.075 129.646 332.658 130.138 332.351 130.79C332.048 131.437 331.896 132.235 331.896 133.182C331.896 134.129 332.048 134.928 332.351 135.58C332.658 136.227 333.075 136.72 333.601 137.057C334.128 137.39 334.726 137.557 335.396 137.557C336.063 137.557 336.66 137.39 337.186 137.057C337.717 136.72 338.133 136.227 338.436 135.58C338.743 134.928 338.896 134.129 338.896 133.182ZM352.536 127.364V139H350.922L345.008 130.466H344.9V139H343.144V127.364H344.769L350.689 135.909H350.797V127.364H352.536Z" fill="white"/>
<path d="M106.197 74.9409C106.197 73.306 106.527 71.8718 107.187 70.6384C107.846 69.405 108.764 68.444 109.94 67.7556C111.116 67.0385 112.479 66.68 114.028 66.68C115.892 66.68 117.456 67.1246 118.718 68.0138C119.98 68.8743 120.926 70.0073 121.557 71.4128C122.217 72.8183 122.547 74.3386 122.547 75.9736C122.547 77.6086 122.217 79.0141 121.557 80.1901C120.926 81.3661 120.023 82.284 118.847 82.9438C117.671 83.5748 116.294 83.8903 114.716 83.8903C113.167 83.8903 111.747 83.5318 110.457 82.8147C109.166 82.0976 108.133 81.065 107.359 79.7168C106.584 78.3687 106.197 76.7767 106.197 74.9409ZM97.3768 74.9409C97.3768 77.293 97.7784 79.4587 98.5816 81.4379C99.4134 83.417 100.575 85.1381 102.067 86.601C103.587 88.0352 105.351 89.1538 107.359 89.957C109.395 90.7314 111.618 91.1187 114.028 91.1187C116.437 91.1187 118.632 90.7314 120.611 89.957C122.619 89.1538 124.354 88.0352 125.817 86.601C127.28 85.1381 128.398 83.417 129.173 81.4379C129.947 79.4587 130.335 77.293 130.335 74.9409C130.335 72.5602 129.933 70.4089 129.13 68.4871C128.327 66.5366 127.194 64.8729 125.731 63.4961C124.297 62.0906 122.576 61.0149 120.568 60.2691C118.589 59.4947 116.409 59.1074 114.028 59.1074C111.704 59.1074 109.539 59.4947 107.531 60.2691C105.523 61.0149 103.745 62.0906 102.196 63.4961C100.675 64.8729 99.4851 66.5366 98.6246 68.4871C97.7927 70.4089 97.3768 72.5602 97.3768 74.9409ZM111.059 77.0922L125.688 90.6884H134.422L119.449 77.0922H111.059ZM138.026 59.8819V80.1041C138.026 82.1406 138.356 83.876 139.016 85.3102C139.676 86.7444 140.579 87.9204 141.726 88.8383C142.902 89.7275 144.251 90.3872 145.771 90.8175C147.32 91.2478 148.955 91.4629 150.676 91.4629C152.426 91.4629 154.06 91.2478 155.581 90.8175C157.101 90.3872 158.449 89.7275 159.625 88.8383C160.801 87.9204 161.719 86.7444 162.379 85.3102C163.039 83.876 163.368 82.1406 163.368 80.1041V59.8819H155.021V79.4156C155.021 80.7925 154.663 81.9111 153.946 82.7717C153.229 83.6035 152.139 84.0194 150.676 84.0194C149.242 84.0194 148.166 83.6035 147.449 82.7717C146.732 81.9111 146.373 80.7925 146.373 79.4156V59.8819H138.026ZM177.509 74.9409C177.509 73.306 177.825 71.8718 178.456 70.6384C179.087 69.405 179.976 68.444 181.123 67.7556C182.271 67.0385 183.619 66.68 185.168 66.68C186.803 66.68 188.18 67.0385 189.298 67.7556C190.446 68.444 191.32 69.405 191.923 70.6384C192.525 71.8718 192.826 73.306 192.826 74.9409C192.826 76.5472 192.511 77.9814 191.88 79.2435C191.249 80.4769 190.36 81.4522 189.212 82.1693C188.093 82.8577 186.745 83.2019 185.168 83.2019C183.619 83.2019 182.271 82.8577 181.123 82.1693C179.976 81.4522 179.087 80.4769 178.456 79.2435C177.825 77.9814 177.509 76.5472 177.509 74.9409ZM168.689 74.9409C168.689 77.293 169.09 79.4587 169.894 81.4379C170.697 83.417 171.83 85.1381 173.293 86.601C174.784 88.0352 176.534 89.1538 178.542 89.957C180.55 90.7314 182.758 91.1187 185.168 91.1187C187.577 91.1187 189.786 90.7314 191.794 89.957C193.83 89.1538 195.58 88.0352 197.043 86.601C198.506 85.1381 199.639 83.417 200.442 81.4379C201.245 79.4587 201.647 77.293 201.647 74.9409C201.647 72.5602 201.231 70.4089 200.399 68.4871C199.596 66.5366 198.448 64.8729 196.957 63.4961C195.465 62.0906 193.716 61.0149 191.708 60.2691C189.728 59.4947 187.549 59.1074 185.168 59.1074C182.844 59.1074 180.679 59.4947 178.671 60.2691C176.692 61.0149 174.956 62.0906 173.465 63.4961C171.973 64.8729 170.797 66.5366 169.937 68.4871C169.105 70.4089 168.689 72.5602 168.689 74.9409ZM202.886 67.3254H211.319V90H219.666V67.3254H228.099V59.8819H202.886V67.3254ZM238.031 90H253.22V83.2449H238.031V90ZM238.031 66.637H253.22V59.8819H238.031V66.637ZM238.031 77.6086H252.359V71.0686H238.031V77.6086ZM232.352 59.8819V90H240.355V59.8819H232.352Z" fill="white"/>
<path d="M257.485 70.2081V76.2317H272.071V70.2081H257.485ZM271.21 63.324L274.05 57.9888C273.735 57.7019 273.319 57.3721 272.802 56.9992C272.286 56.6263 271.641 56.3108 270.866 56.0526C270.12 55.7944 269.188 55.6654 268.069 55.6654C266.291 55.6654 264.814 55.9665 263.638 56.5689C262.462 57.1713 261.573 58.0174 260.97 59.1074C260.397 60.1687 260.11 61.4308 260.11 62.8937V90H267.209V64.8729C267.209 64.2705 267.295 63.7829 267.467 63.41C267.639 63.0084 267.869 62.7216 268.156 62.5495C268.471 62.3487 268.844 62.2483 269.274 62.2483C269.647 62.2483 269.991 62.3487 270.307 62.5495C270.622 62.7216 270.924 62.9798 271.21 63.324ZM300.654 80.4483C300.654 78.3256 300.21 76.5472 299.32 75.1131C298.431 73.6502 297.284 72.5458 295.878 71.8001C294.473 71.0543 292.996 70.6814 291.447 70.6814C290.443 70.6814 289.482 70.7531 288.564 70.8965C287.646 71.0399 286.786 71.3124 285.982 71.714L287.574 67.1102H299.88V59.8819H281.508L277.248 77.6516C278.281 77.1926 279.313 76.8484 280.346 76.619C281.407 76.3895 282.426 76.2317 283.401 76.1457C284.376 76.0596 285.222 76.0166 285.939 76.0166C286.829 76.0166 287.689 76.1313 288.521 76.3608C289.381 76.5616 290.084 76.9058 290.629 77.3934C291.203 77.881 291.49 78.5551 291.49 79.4156C291.49 80.2475 291.26 80.9359 290.801 81.4809C290.342 82.0259 289.697 82.4131 288.865 82.6426C288.062 82.872 287.087 82.9868 285.939 82.9868C285.308 82.9868 284.577 82.9007 283.745 82.7286C282.913 82.5278 282.024 82.2267 281.077 81.8251C280.16 81.4235 279.242 80.9072 278.324 80.2762L275.57 87.4184C276.574 87.9921 277.678 88.5228 278.883 89.0104C280.117 89.4693 281.493 89.8422 283.014 90.1291C284.534 90.4446 286.212 90.6024 288.048 90.6024C289.51 90.6024 290.973 90.4016 292.436 90C293.928 89.6271 295.29 89.0391 296.524 88.2359C297.757 87.4041 298.747 86.3428 299.492 85.052C300.267 83.7612 300.654 82.2267 300.654 80.4483Z" fill="#FF27F6"/>
</svg>
