<svg width="400" height="200" viewBox="0 0 400 200" fill="none" xmlns="http://www.w3.org/2000/svg">
<rect width="400" height="200" rx="24" fill="white"/>
<path d="M77.1839 69.8819V100H84.6704V69.8819H77.1839ZM87.9404 100C91.239 100 94.0931 99.3833 96.5025 98.1499C98.912 96.9165 100.776 95.1811 102.096 92.9438C103.415 90.6777 104.075 88.0101 104.075 84.9409C104.075 81.8431 103.415 79.1755 102.096 76.9381C100.776 74.7008 98.912 72.9654 96.5025 71.732C94.0931 70.4986 91.239 69.8819 87.9404 69.8819H82.0028V76.3358H87.6822C88.8296 76.3358 89.9339 76.4792 90.9952 76.766C92.0852 77.0529 93.0318 77.5262 93.8349 78.1859C94.6668 78.8456 95.3265 79.7348 95.8141 80.8535C96.3017 81.9435 96.5456 83.306 96.5456 84.9409C96.5456 86.5759 96.3017 87.9528 95.8141 89.0714C95.3265 90.1614 94.6668 91.0363 93.8349 91.696C93.0318 92.3557 92.0852 92.829 90.9952 93.1159C89.9339 93.4027 88.8296 93.5461 87.6822 93.5461H82.0028V100H87.9404ZM119.237 100.43C121.762 100.43 123.898 99.9426 125.648 98.9674C127.427 97.9921 128.832 96.5292 129.865 94.5787L124.056 93.1589C123.569 94.0194 122.909 94.6648 122.077 95.0951C121.274 95.5253 120.299 95.7404 119.151 95.7404C118.147 95.7404 117.301 95.5253 116.613 95.0951C115.924 94.6361 115.408 93.9764 115.064 93.1159C114.72 92.2553 114.548 91.2227 114.548 90.018C114.576 88.6985 114.748 87.6086 115.064 86.748C115.408 85.8588 115.91 85.1991 116.57 84.7688C117.229 84.3386 118.047 84.1235 119.022 84.1235C119.797 84.1235 120.471 84.2956 121.044 84.6398C121.618 84.984 122.063 85.4716 122.378 86.1026C122.694 86.7337 122.851 87.4795 122.851 88.34C122.851 88.5408 122.794 88.7989 122.679 89.1145C122.593 89.4013 122.479 89.6451 122.335 89.8459L123.884 87.8667H111.665V91.4809H129.736C129.793 91.2801 129.822 91.0363 129.822 90.7494C129.822 90.4339 129.822 90.1184 129.822 89.8029C129.822 87.6803 129.406 85.8732 128.574 84.3816C127.742 82.89 126.537 81.757 124.96 80.9826C123.382 80.1794 121.446 79.7778 119.151 79.7778C116.857 79.7778 114.863 80.1938 113.171 81.0256C111.507 81.8574 110.231 83.0478 109.341 84.5967C108.452 86.1457 108.008 87.9814 108.008 90.1041C108.008 92.198 108.467 94.0194 109.384 95.5683C110.302 97.1173 111.593 98.322 113.257 99.1825C114.949 100.014 116.943 100.43 119.237 100.43ZM140.373 90.1041C140.373 89.1288 140.603 88.2539 141.062 87.4795C141.521 86.705 142.152 86.0883 142.955 85.6294C143.787 85.1704 144.676 84.9409 145.623 84.9409C146.34 84.9409 147.071 85.0557 147.817 85.2852C148.563 85.5146 149.251 85.8445 149.882 86.2748C150.542 86.705 151.073 87.2357 151.474 87.8667V81.4989C150.786 81.0113 149.925 80.6097 148.893 80.2942C147.86 79.9499 146.598 79.7778 145.106 79.7778C142.926 79.7778 140.961 80.2081 139.212 81.0686C137.491 81.9291 136.128 83.1339 135.124 84.6828C134.149 86.203 133.661 88.0101 133.661 90.1041C133.661 92.1693 134.149 93.9764 135.124 95.5253C136.128 97.0742 137.491 98.279 139.212 99.1395C140.961 100 142.926 100.43 145.106 100.43C146.598 100.43 147.86 100.272 148.893 99.957C149.925 99.6128 150.786 99.1682 151.474 98.6232V92.2984C151.073 92.9294 150.556 93.4601 149.925 93.8903C149.323 94.3206 148.649 94.6648 147.903 94.9229C147.186 95.1524 146.426 95.2672 145.623 95.2672C144.676 95.2672 143.787 95.052 142.955 94.6218C142.152 94.1915 141.521 93.6035 141.062 92.8577C140.603 92.0832 140.373 91.1654 140.373 90.1041ZM169.938 80.2081L166.238 85.4142L162.624 80.2081H155.137L162.839 89.8459L154.707 100H162.194L166.238 94.2345L170.369 100H177.597L169.594 89.8459L177.167 80.2081H169.938ZM190.659 100.43C193.183 100.43 195.32 99.9426 197.069 98.9674C198.848 97.9921 200.253 96.5292 201.286 94.5787L195.477 93.1589C194.99 94.0194 194.33 94.6648 193.498 95.0951C192.695 95.5253 191.72 95.7404 190.573 95.7404C189.569 95.7404 188.722 95.5253 188.034 95.0951C187.346 94.6361 186.829 93.9764 186.485 93.1159C186.141 92.2553 185.969 91.2227 185.969 90.018C185.997 88.6985 186.17 87.6086 186.485 86.748C186.829 85.8588 187.331 85.1991 187.991 84.7688C188.651 84.3386 189.468 84.1235 190.443 84.1235C191.218 84.1235 191.892 84.2956 192.466 84.6398C193.039 84.984 193.484 85.4716 193.799 86.1026C194.115 86.7337 194.273 87.4795 194.273 88.34C194.273 88.5408 194.215 88.7989 194.101 89.1145C194.015 89.4013 193.9 89.6451 193.756 89.8459L195.305 87.8667H183.086V91.4809H201.157C201.214 91.2801 201.243 91.0363 201.243 90.7494C201.243 90.4339 201.243 90.1184 201.243 89.8029C201.243 87.6803 200.827 85.8732 199.995 84.3816C199.163 82.89 197.959 81.757 196.381 80.9826C194.803 80.1794 192.867 79.7778 190.573 79.7778C188.278 79.7778 186.284 80.1938 184.592 81.0256C182.928 81.8574 181.652 83.0478 180.763 84.5967C179.873 86.1457 179.429 87.9814 179.429 90.1041C179.429 92.198 179.888 94.0194 180.806 95.5683C181.724 97.1173 183.014 98.322 184.678 99.1825C186.37 100.014 188.364 100.43 190.659 100.43ZM206.33 66.4398V100H212.87V66.4398H206.33ZM219.003 66.4398V100H225.543V66.4398H219.003ZM241.743 100.43C244.268 100.43 246.405 99.9426 248.154 98.9674C249.933 97.9921 251.338 96.5292 252.371 94.5787L246.562 93.1589C246.075 94.0194 245.415 94.6648 244.583 95.0951C243.78 95.5253 242.805 95.7404 241.657 95.7404C240.653 95.7404 239.807 95.5253 239.119 95.0951C238.43 94.6361 237.914 93.9764 237.57 93.1159C237.226 92.2553 237.054 91.2227 237.054 90.018C237.082 88.6985 237.254 87.6086 237.57 86.748C237.914 85.8588 238.416 85.1991 239.076 84.7688C239.735 84.3386 240.553 84.1235 241.528 84.1235C242.303 84.1235 242.977 84.2956 243.55 84.6398C244.124 84.984 244.569 85.4716 244.884 86.1026C245.2 86.7337 245.358 87.4795 245.358 88.34C245.358 88.5408 245.3 88.7989 245.185 89.1145C245.099 89.4013 244.985 89.6451 244.841 89.8459L246.39 87.8667H234.171V91.4809H252.242C252.299 91.2801 252.328 91.0363 252.328 90.7494C252.328 90.4339 252.328 90.1184 252.328 89.8029C252.328 87.6803 251.912 85.8732 251.08 84.3816C250.248 82.89 249.043 81.757 247.466 80.9826C245.888 80.1794 243.952 79.7778 241.657 79.7778C239.363 79.7778 237.369 80.1938 235.677 81.0256C234.013 81.8574 232.737 83.0478 231.847 84.5967C230.958 86.1457 230.514 87.9814 230.514 90.1041C230.514 92.198 230.973 94.0194 231.89 95.5683C232.808 97.1173 234.099 98.322 235.763 99.1825C237.455 100.014 239.449 100.43 241.743 100.43ZM270.28 87.9528V100H277.035V87.2643C277.035 84.8836 276.476 83.0335 275.357 81.714C274.238 80.3945 272.446 79.7348 269.979 79.7348C268.516 79.7348 267.282 80.036 266.279 80.6384C265.303 81.2407 264.529 82.0869 263.955 83.1769V80.2081H257.415V100H263.955V87.9528C263.955 87.1783 264.099 86.5186 264.385 85.9736C264.672 85.4286 265.074 85.0127 265.59 84.7258C266.106 84.439 266.709 84.2956 267.397 84.2956C268.43 84.2956 269.161 84.6111 269.592 85.2421C270.05 85.8732 270.28 86.7767 270.28 87.9528ZM288.703 90.1041C288.703 89.1288 288.933 88.2539 289.392 87.4795C289.851 86.705 290.482 86.0883 291.285 85.6294C292.117 85.1704 293.006 84.9409 293.953 84.9409C294.67 84.9409 295.401 85.0557 296.147 85.2852C296.893 85.5146 297.581 85.8445 298.212 86.2748C298.872 86.705 299.403 87.2357 299.804 87.8667V81.4989C299.116 81.0113 298.255 80.6097 297.223 80.2942C296.19 79.9499 294.928 79.7778 293.436 79.7778C291.256 79.7778 289.291 80.2081 287.542 81.0686C285.821 81.9291 284.458 83.1339 283.454 84.6828C282.479 86.203 281.991 88.0101 281.991 90.1041C281.991 92.1693 282.479 93.9764 283.454 95.5253C284.458 97.0742 285.821 98.279 287.542 99.1395C289.291 100 291.256 100.43 293.436 100.43C294.928 100.43 296.19 100.272 297.223 99.957C298.255 99.6128 299.116 99.1682 299.804 98.6232V92.2984C299.403 92.9294 298.886 93.4601 298.255 93.8903C297.653 94.3206 296.979 94.6648 296.233 94.9229C295.516 95.1524 294.756 95.2672 293.953 95.2672C293.006 95.2672 292.117 95.052 291.285 94.6218C290.482 94.1915 289.851 93.6035 289.392 92.8577C288.933 92.0832 288.703 91.1654 288.703 90.1041ZM315.644 100.43C318.168 100.43 320.305 99.9426 322.055 98.9674C323.833 97.9921 325.238 96.5292 326.271 94.5787L320.463 93.1589C319.975 94.0194 319.315 94.6648 318.483 95.0951C317.68 95.5253 316.705 95.7404 315.558 95.7404C314.554 95.7404 313.707 95.5253 313.019 95.0951C312.331 94.6361 311.814 93.9764 311.47 93.1159C311.126 92.2553 310.954 91.2227 310.954 90.018C310.983 88.6985 311.155 87.6086 311.47 86.748C311.814 85.8588 312.316 85.1991 312.976 84.7688C313.636 84.3386 314.453 84.1235 315.429 84.1235C316.203 84.1235 316.877 84.2956 317.451 84.6398C318.024 84.984 318.469 85.4716 318.785 86.1026C319.1 86.7337 319.258 87.4795 319.258 88.34C319.258 88.5408 319.2 88.7989 319.086 89.1145C319 89.4013 318.885 89.6451 318.742 89.8459L320.29 87.8667H308.071V91.4809H326.142C326.199 91.2801 326.228 91.0363 326.228 90.7494C326.228 90.4339 326.228 90.1184 326.228 89.8029C326.228 87.6803 325.812 85.8732 324.98 84.3816C324.148 82.89 322.944 81.757 321.366 80.9826C319.788 80.1794 317.852 79.7778 315.558 79.7778C313.263 79.7778 311.269 80.1938 309.577 81.0256C307.913 81.8574 306.637 83.0478 305.748 84.5967C304.859 86.1457 304.414 87.9814 304.414 90.1041C304.414 92.198 304.873 94.0194 305.791 95.5683C306.709 97.1173 307.999 98.322 309.663 99.1825C311.355 100.014 313.349 100.43 315.644 100.43Z" fill="#F60302"/>
<path d="M58.5779 127.845H57.1883C57.1349 127.548 57.0354 127.287 56.8899 127.061C56.7444 126.835 56.5663 126.644 56.3555 126.487C56.1446 126.329 55.9086 126.21 55.6473 126.13C55.389 126.05 55.1144 126.01 54.8234 126.01C54.2978 126.01 53.8272 126.142 53.4115 126.406C52.9988 126.671 52.6722 127.058 52.4317 127.569C52.1942 128.08 52.0754 128.703 52.0754 129.439C52.0754 130.182 52.1942 130.808 52.4317 131.319C52.6722 131.83 53.0003 132.216 53.416 132.477C53.8317 132.738 54.2993 132.869 54.8189 132.869C55.1069 132.869 55.3801 132.83 55.6384 132.753C55.8997 132.673 56.1357 132.556 56.3465 132.401C56.5574 132.247 56.7355 132.058 56.881 131.835C57.0294 131.61 57.1319 131.352 57.1883 131.061L58.5779 131.065C58.5036 131.513 58.3596 131.926 58.1458 132.303C57.935 132.677 57.6634 133.001 57.3308 133.274C57.0012 133.544 56.6242 133.754 56.1996 133.902C55.775 134.05 55.3118 134.125 54.81 134.125C54.0202 134.125 53.3165 133.938 52.699 133.564C52.0814 133.186 51.5944 132.648 51.2381 131.947C50.8848 131.246 50.7081 130.41 50.7081 129.439C50.7081 128.466 50.8863 127.63 51.2426 126.932C51.5989 126.231 52.0858 125.694 52.7034 125.32C53.321 124.943 54.0232 124.754 54.81 124.754C55.294 124.754 55.7453 124.824 56.1639 124.963C56.5856 125.1 56.9641 125.302 57.2996 125.569C57.6352 125.833 57.9128 126.157 58.1325 126.54C58.3522 126.92 58.5007 127.355 58.5779 127.845ZM60.4755 134V124.879H66.194V126.063H61.8517V128.843H65.8956V130.023H61.8517V132.815H66.2475V134H60.4755ZM68.2831 134V124.879H69.6593V132.815H73.7924V134H68.2831ZM75.6131 134V124.879H81.3317V126.063H76.9893V128.843H81.0333V130.023H76.9893V132.815H81.3852V134H75.6131ZM83.4208 134V124.879H86.7611C87.4084 124.879 87.9443 124.986 88.3689 125.199C88.7935 125.41 89.1112 125.697 89.322 126.059C89.5328 126.418 89.6382 126.824 89.6382 127.275C89.6382 127.655 89.5684 127.976 89.4289 128.237C89.2893 128.495 89.1023 128.703 88.8677 128.86C88.6361 129.015 88.3808 129.128 88.1017 129.199V129.288C88.4045 129.303 88.7 129.401 88.988 129.582C89.2789 129.76 89.5194 130.014 89.7095 130.343C89.8995 130.673 89.9945 131.074 89.9945 131.546C89.9945 132.012 89.8847 132.431 89.6649 132.802C89.4482 133.17 89.1127 133.463 88.6584 133.679C88.2041 133.893 87.6236 134 86.917 134H83.4208ZM84.797 132.82H86.7834C87.4425 132.82 87.9146 132.692 88.1997 132.437C88.4847 132.181 88.6272 131.862 88.6272 131.479C88.6272 131.191 88.5545 130.927 88.409 130.686C88.2635 130.446 88.0557 130.254 87.7855 130.112C87.5182 129.969 87.2005 129.898 86.8324 129.898H84.797V132.82ZM84.797 128.825H86.6409C86.9497 128.825 87.2273 128.765 87.4737 128.647C87.7231 128.528 87.9206 128.362 88.0661 128.148C88.2145 127.931 88.2887 127.676 88.2887 127.382C88.2887 127.005 88.1566 126.688 87.8924 126.433C87.6281 126.178 87.2228 126.05 86.6765 126.05H84.797V128.825ZM91.8776 134V124.879H95.1288C95.8355 124.879 96.4219 125.001 96.8881 125.244C97.3572 125.487 97.7075 125.824 97.9391 126.255C98.1707 126.683 98.2865 127.177 98.2865 127.738C98.2865 128.296 98.1692 128.788 97.9347 129.212C97.7031 129.634 97.3527 129.962 96.8836 130.197C96.4175 130.431 95.831 130.548 95.1244 130.548H92.6615V129.364H94.9997C95.4451 129.364 95.8073 129.3 96.0864 129.172C96.3685 129.044 96.5748 128.859 96.7055 128.615C96.8361 128.372 96.9014 128.08 96.9014 127.738C96.9014 127.394 96.8346 127.095 96.701 126.843C96.5704 126.59 96.364 126.398 96.0819 126.264C95.8028 126.127 95.4362 126.059 94.9819 126.059H93.2538V134H91.8776ZM96.3803 129.885L98.6339 134H97.0662L94.8572 129.885H96.3803ZM100.982 134H99.5216L102.804 124.879H104.394L107.676 134H106.216L103.637 126.536H103.566L100.982 134ZM101.227 130.428H105.966V131.586H101.227V130.428ZM107.717 126.063V124.879H114.776V126.063H111.93V134H110.558V126.063H107.717ZM117.963 124.879V134H116.587V124.879H117.963ZM127.58 124.879V134H126.315L121.679 127.311H121.594V134H120.218V124.879H121.492L126.132 131.577H126.217V124.879H127.58ZM136.011 127.76C135.925 127.49 135.809 127.248 135.664 127.034C135.521 126.818 135.35 126.634 135.151 126.482C134.953 126.328 134.725 126.21 134.47 126.13C134.218 126.05 133.94 126.01 133.637 126.01C133.124 126.01 132.66 126.142 132.248 126.406C131.835 126.671 131.508 127.058 131.268 127.569C131.03 128.077 130.912 128.699 130.912 129.435C130.912 130.174 131.032 130.799 131.272 131.31C131.513 131.821 131.842 132.208 132.261 132.472C132.68 132.737 133.156 132.869 133.691 132.869C134.187 132.869 134.619 132.768 134.987 132.566C135.358 132.364 135.644 132.079 135.846 131.711C136.051 131.34 136.154 130.903 136.154 130.401L136.51 130.468H133.9V129.333H137.485V130.37C137.485 131.136 137.322 131.801 136.995 132.365C136.672 132.927 136.223 133.36 135.65 133.666C135.08 133.972 134.427 134.125 133.691 134.125C132.865 134.125 132.141 133.935 131.517 133.555C130.897 133.175 130.413 132.636 130.065 131.938C129.718 131.237 129.544 130.406 129.544 129.444C129.544 128.716 129.645 128.063 129.847 127.484C130.049 126.905 130.333 126.414 130.698 126.01C131.066 125.603 131.498 125.293 131.994 125.079C132.493 124.862 133.037 124.754 133.628 124.754C134.121 124.754 134.58 124.827 135.005 124.972C135.432 125.118 135.812 125.324 136.145 125.591C136.48 125.859 136.758 126.176 136.978 126.544C137.197 126.91 137.346 127.315 137.423 127.76H136.011ZM143.824 134H142.363L145.645 124.879H147.235L150.517 134H149.057L146.478 126.536H146.407L143.824 134ZM144.068 130.428H148.807V131.586H144.068V130.428ZM156.987 127.275C156.939 126.853 156.743 126.527 156.399 126.295C156.054 126.061 155.621 125.943 155.098 125.943C154.724 125.943 154.401 126.003 154.127 126.121C153.854 126.237 153.642 126.398 153.491 126.602C153.342 126.804 153.268 127.034 153.268 127.293C153.268 127.509 153.318 127.697 153.419 127.854C153.523 128.011 153.658 128.143 153.825 128.25C153.994 128.354 154.175 128.442 154.368 128.513C154.561 128.581 154.747 128.638 154.925 128.682L155.815 128.914C156.106 128.985 156.405 129.082 156.711 129.203C157.016 129.325 157.3 129.485 157.561 129.684C157.823 129.883 158.033 130.13 158.194 130.424C158.357 130.718 158.439 131.069 158.439 131.479C158.439 131.996 158.305 132.455 158.038 132.855C157.774 133.256 157.389 133.572 156.884 133.804C156.383 134.036 155.775 134.151 155.063 134.151C154.38 134.151 153.789 134.043 153.29 133.826C152.791 133.61 152.401 133.302 152.119 132.904C151.837 132.504 151.681 132.028 151.651 131.479H153.032C153.059 131.809 153.165 132.083 153.353 132.303C153.543 132.52 153.785 132.682 154.079 132.789C154.375 132.893 154.701 132.944 155.054 132.944C155.443 132.944 155.789 132.884 156.092 132.762C156.397 132.637 156.638 132.465 156.813 132.245C156.988 132.023 157.076 131.763 157.076 131.466C157.076 131.196 156.999 130.974 156.844 130.802C156.693 130.63 156.486 130.488 156.225 130.375C155.967 130.262 155.674 130.162 155.348 130.076L154.27 129.782C153.54 129.583 152.961 129.291 152.533 128.905C152.108 128.519 151.896 128.008 151.896 127.373C151.896 126.847 152.039 126.389 152.324 125.997C152.609 125.605 152.995 125.3 153.482 125.084C153.969 124.864 154.518 124.754 155.13 124.754C155.747 124.754 156.292 124.862 156.764 125.079C157.239 125.296 157.613 125.594 157.886 125.974C158.16 126.351 158.302 126.785 158.314 127.275H156.987ZM160.334 134V124.879H166.053V126.063H161.71V128.843H165.754V130.023H161.71V132.815H166.106V134H160.334ZM167.692 126.063V124.879H174.751V126.063H171.905V134H170.533V126.063H167.692ZM177.6 124.879V125.734C177.6 125.986 177.552 126.252 177.457 126.531C177.365 126.807 177.234 127.073 177.065 127.328C176.896 127.584 176.697 127.803 176.468 127.987L175.809 127.515C175.984 127.26 176.136 126.988 176.263 126.7C176.394 126.412 176.459 126.095 176.459 125.747V124.879H177.6ZM184.286 127.275C184.238 126.853 184.042 126.527 183.698 126.295C183.354 126.061 182.92 125.943 182.398 125.943C182.023 125.943 181.7 126.003 181.427 126.121C181.154 126.237 180.941 126.398 180.79 126.602C180.641 126.804 180.567 127.034 180.567 127.293C180.567 127.509 180.618 127.697 180.719 127.854C180.822 128.011 180.958 128.143 181.124 128.25C181.293 128.354 181.474 128.442 181.667 128.513C181.86 128.581 182.046 128.638 182.224 128.682L183.115 128.914C183.406 128.985 183.704 129.082 184.01 129.203C184.316 129.325 184.599 129.485 184.86 129.684C185.122 129.883 185.333 130.13 185.493 130.424C185.656 130.718 185.738 131.069 185.738 131.479C185.738 131.996 185.604 132.455 185.337 132.855C185.073 133.256 184.688 133.572 184.184 133.804C183.682 134.036 183.075 134.151 182.362 134.151C181.679 134.151 181.088 134.043 180.589 133.826C180.091 133.61 179.7 133.302 179.418 132.904C179.136 132.504 178.98 132.028 178.95 131.479H180.331C180.358 131.809 180.465 132.083 180.652 132.303C180.842 132.52 181.084 132.682 181.378 132.789C181.675 132.893 182 132.944 182.353 132.944C182.742 132.944 183.088 132.884 183.391 132.762C183.697 132.637 183.937 132.465 184.112 132.245C184.287 132.023 184.375 131.763 184.375 131.466C184.375 131.196 184.298 130.974 184.143 130.802C183.992 130.63 183.786 130.488 183.524 130.375C183.266 130.262 182.974 130.162 182.647 130.076L181.569 129.782C180.839 129.583 180.26 129.291 179.832 128.905C179.408 128.519 179.195 128.008 179.195 127.373C179.195 126.847 179.338 126.389 179.623 125.997C179.908 125.605 180.294 125.3 180.781 125.084C181.268 124.864 181.817 124.754 182.429 124.754C183.046 124.754 183.591 124.862 184.063 125.079C184.538 125.296 184.912 125.594 185.186 125.974C185.459 126.351 185.601 126.785 185.613 127.275H184.286ZM194.156 134H191.203V124.879H194.25C195.143 124.879 195.911 125.061 196.552 125.427C197.193 125.789 197.685 126.31 198.026 126.99C198.371 127.667 198.543 128.479 198.543 129.426C198.543 130.376 198.369 131.193 198.022 131.876C197.677 132.558 197.179 133.084 196.525 133.452C195.872 133.817 195.082 134 194.156 134ZM192.579 132.797H194.08C194.775 132.797 195.353 132.667 195.813 132.406C196.273 132.141 196.617 131.76 196.846 131.261C197.075 130.759 197.189 130.148 197.189 129.426C197.189 128.71 197.075 128.103 196.846 127.604C196.62 127.106 196.283 126.727 195.835 126.469C195.387 126.21 194.83 126.081 194.165 126.081H192.579V132.797ZM200.505 134V124.879H206.224V126.063H201.881V128.843H205.925V130.023H201.881V132.815H206.277V134H200.505ZM215.889 127.845H214.499C214.446 127.548 214.346 127.287 214.201 127.061C214.055 126.835 213.877 126.644 213.666 126.487C213.455 126.329 213.219 126.21 212.958 126.13C212.7 126.05 212.425 126.01 212.134 126.01C211.609 126.01 211.138 126.142 210.722 126.406C210.31 126.671 209.983 127.058 209.742 127.569C209.505 128.08 209.386 128.703 209.386 129.439C209.386 130.182 209.505 130.808 209.742 131.319C209.983 131.83 210.311 132.216 210.727 132.477C211.142 132.738 211.61 132.869 212.13 132.869C212.418 132.869 212.691 132.83 212.949 132.753C213.21 132.673 213.446 132.556 213.657 132.401C213.868 132.247 214.046 132.058 214.192 131.835C214.34 131.61 214.443 131.352 214.499 131.061L215.889 131.065C215.814 131.513 215.67 131.926 215.457 132.303C215.246 132.677 214.974 133.001 214.642 133.274C214.312 133.544 213.935 133.754 213.51 133.902C213.086 134.05 212.622 134.125 212.121 134.125C211.331 134.125 210.627 133.938 210.01 133.564C209.392 133.186 208.905 132.648 208.549 131.947C208.196 131.246 208.019 130.41 208.019 129.439C208.019 128.466 208.197 127.63 208.553 126.932C208.91 126.231 209.397 125.694 210.014 125.32C210.632 124.943 211.334 124.754 212.121 124.754C212.605 124.754 213.056 124.824 213.475 124.963C213.896 125.1 214.275 125.302 214.61 125.569C214.946 125.833 215.223 126.157 215.443 126.54C215.663 126.92 215.811 127.355 215.889 127.845ZM218.495 134H217.035L220.317 124.879H221.907L225.189 134H223.729L221.15 126.536H221.079L218.495 134ZM218.74 130.428H223.479V131.586H218.74V130.428ZM229.71 134H226.757V124.879H229.804C230.697 124.879 231.465 125.061 232.106 125.427C232.748 125.789 233.239 126.31 233.58 126.99C233.925 127.667 234.097 128.479 234.097 129.426C234.097 130.376 233.923 131.193 233.576 131.876C233.232 132.558 232.733 133.084 232.08 133.452C231.426 133.817 230.637 134 229.71 134ZM228.134 132.797H229.634C230.329 132.797 230.907 132.667 231.367 132.406C231.827 132.141 232.172 131.76 232.4 131.261C232.629 130.759 232.743 130.148 232.743 129.426C232.743 128.71 232.629 128.103 232.4 127.604C232.175 127.106 231.838 126.727 231.389 126.469C230.941 126.21 230.384 126.081 229.719 126.081H228.134V132.797ZM236.059 134V124.879H241.778V126.063H237.435V128.843H241.479V130.023H237.435V132.815H241.831V134H236.059ZM255.36 129.439C255.36 130.413 255.182 131.251 254.826 131.951C254.469 132.649 253.981 133.186 253.36 133.564C252.743 133.938 252.041 134.125 251.254 134.125C250.464 134.125 249.759 133.938 249.138 133.564C248.521 133.186 248.034 132.648 247.677 131.947C247.321 131.246 247.143 130.41 247.143 129.439C247.143 128.466 247.321 127.63 247.677 126.932C248.034 126.231 248.521 125.694 249.138 125.32C249.759 124.943 250.464 124.754 251.254 124.754C252.041 124.754 252.743 124.943 253.36 125.32C253.981 125.694 254.469 126.231 254.826 126.932C255.182 127.63 255.36 128.466 255.36 129.439ZM253.997 129.439C253.997 128.697 253.877 128.072 253.636 127.564C253.399 127.054 253.072 126.668 252.657 126.406C252.244 126.142 251.776 126.01 251.254 126.01C250.728 126.01 250.259 126.142 249.846 126.406C249.434 126.668 249.107 127.054 248.867 127.564C248.629 128.072 248.51 128.697 248.51 129.439C248.51 130.182 248.629 130.808 248.867 131.319C249.107 131.827 249.434 132.213 249.846 132.477C250.259 132.738 250.728 132.869 251.254 132.869C251.776 132.869 252.244 132.738 252.657 132.477C253.072 132.213 253.399 131.827 253.636 131.319C253.877 130.808 253.997 130.182 253.997 129.439ZM257.327 134V124.879H262.983V126.063H258.703V128.843H262.578V130.023H258.703V134H257.327ZM268.496 134V124.879H274.215V126.063H269.872V128.843H273.916V130.023H269.872V132.815H274.268V134H268.496ZM277.261 124.879L279.444 128.446H279.515L281.697 124.879H283.292L280.45 129.439L283.31 134H281.706L279.515 130.482H279.444L277.252 134H275.649L278.557 129.439L275.667 124.879H277.261ZM292.238 127.845H290.849C290.795 127.548 290.696 127.287 290.55 127.061C290.405 126.835 290.227 126.644 290.016 126.487C289.805 126.329 289.569 126.21 289.308 126.13C289.05 126.05 288.775 126.01 288.484 126.01C287.958 126.01 287.488 126.142 287.072 126.406C286.659 126.671 286.333 127.058 286.092 127.569C285.855 128.08 285.736 128.703 285.736 129.439C285.736 130.182 285.855 130.808 286.092 131.319C286.333 131.83 286.661 132.216 287.077 132.477C287.492 132.738 287.96 132.869 288.479 132.869C288.767 132.869 289.041 132.83 289.299 132.753C289.56 132.673 289.796 132.556 290.007 132.401C290.218 132.247 290.396 132.058 290.542 131.835C290.69 131.61 290.792 131.352 290.849 131.061L292.238 131.065C292.164 131.513 292.02 131.926 291.806 132.303C291.596 132.677 291.324 133.001 290.991 133.274C290.662 133.544 290.285 133.754 289.86 133.902C289.436 134.05 288.972 134.125 288.471 134.125C287.681 134.125 286.977 133.938 286.36 133.564C285.742 133.186 285.255 132.648 284.899 131.947C284.545 131.246 284.369 130.41 284.369 129.439C284.369 128.466 284.547 127.63 284.903 126.932C285.259 126.231 285.746 125.694 286.364 125.32C286.982 124.943 287.684 124.754 288.471 124.754C288.955 124.754 289.406 124.824 289.824 124.963C290.246 125.1 290.625 125.302 290.96 125.569C291.296 125.833 291.573 126.157 291.793 126.54C292.013 126.92 292.161 127.355 292.238 127.845ZM294.136 134V124.879H299.855V126.063H295.512V128.843H299.556V130.023H295.512V132.815H299.908V134H294.136ZM301.944 134V124.879H303.32V132.815H307.453V134H301.944ZM309.274 134V124.879H310.65V132.815H314.783V134H309.274ZM316.604 134V124.879H322.322V126.063H317.98V128.843H322.024V130.023H317.98V132.815H322.376V134H316.604ZM331.773 124.879V134H330.509L325.872 127.311H325.788V134H324.411V124.879H325.685L330.326 131.577H330.411V124.879H331.773ZM341.607 127.845H340.218C340.164 127.548 340.065 127.287 339.92 127.061C339.774 126.835 339.596 126.644 339.385 126.487C339.174 126.329 338.938 126.21 338.677 126.13C338.419 126.05 338.144 126.01 337.853 126.01C337.327 126.01 336.857 126.142 336.441 126.406C336.028 126.671 335.702 127.058 335.461 127.569C335.224 128.08 335.105 128.703 335.105 129.439C335.105 130.182 335.224 130.808 335.461 131.319C335.702 131.83 336.03 132.216 336.446 132.477C336.861 132.738 337.329 132.869 337.849 132.869C338.137 132.869 338.41 132.83 338.668 132.753C338.929 132.673 339.165 132.556 339.376 132.401C339.587 132.247 339.765 132.058 339.911 131.835C340.059 131.61 340.162 131.352 340.218 131.061L341.607 131.065C341.533 131.513 341.389 131.926 341.175 132.303C340.965 132.677 340.693 133.001 340.36 133.274C340.031 133.544 339.654 133.754 339.229 133.902C338.805 134.05 338.341 134.125 337.84 134.125C337.05 134.125 336.346 133.938 335.729 133.564C335.111 133.186 334.624 132.648 334.268 131.947C333.914 131.246 333.738 130.41 333.738 129.439C333.738 128.466 333.916 127.63 334.272 126.932C334.629 126.231 335.115 125.694 335.733 125.32C336.351 124.943 337.053 124.754 337.84 124.754C338.324 124.754 338.775 124.824 339.194 124.963C339.615 125.1 339.994 125.302 340.329 125.569C340.665 125.833 340.942 126.157 341.162 126.54C341.382 126.92 341.53 127.355 341.607 127.845ZM343.505 134V124.879H349.224V126.063H344.881V128.843H348.925V130.023H344.881V132.815H349.277V134H343.505Z" fill="#000AF4"/>
</svg>
